<svg width="112" height="116" viewBox="0 0 112 116" fill="none" xmlns="http://www.w3.org/2000/svg">
<path d="M52.2817 80.7269L49.1537 81.9538L42.5812 65.1966L36.3252 67.6503L42.8977 84.4075L39.7697 85.6343L31.8827 65.5257L44.3947 60.6183L52.2817 80.7269Z" fill="#0066FF"/>
<path d="M67.9217 74.5926L64.7937 75.8195L54.2778 49.008L48.0218 51.4617L58.5377 78.2732L55.4097 79.5L43.5793 49.3371L56.0913 44.4297L67.9217 74.5926Z" fill="#0066FF"/>
<path d="M83.5617 68.4583L80.4337 69.6852L65.9743 32.8194L59.7183 35.2731L74.1777 72.1389L71.0497 73.3657L55.2758 33.1485L67.7878 28.2411L83.5617 68.4583Z" fill="#0066FF"/>
<path d="M36.6417 86.8612L86.6897 67.2314L88.0042 70.5829L37.9562 90.2126L36.6417 86.8612Z" fill="#0066FF"/>
</svg>
