<svg width="97" height="97" viewBox="0 0 97 97" fill="none" xmlns="http://www.w3.org/2000/svg">
<g clip-path="url(#clip0_21_158)">
<path d="M43.4871 30.3933L24.3033 37.8428L31.7526 57.022C32.5837 59.1666 31.519 61.5826 29.3763 62.4145C28.2994 62.8325 27.1658 62.7748 26.1877 62.3437C25.2095 61.9126 24.4019 61.115 23.9838 60.0381L15.0273 36.9727C14.6265 35.9444 14.6519 34.7966 15.0972 33.786C15.5417 32.7773 16.3726 31.9821 17.4028 31.5821L40.471 22.6246C42.6156 21.7935 45.0296 22.8573 45.8634 25.0009C46.6945 27.1455 45.6324 29.5557 43.4871 30.3933ZM81.9702 60.033L73.0173 36.9646C72.1835 34.821 69.7695 33.7572 67.6248 34.5883C65.4794 35.4212 64.4156 37.8352 65.2485 39.9807L72.6934 59.1648L53.5132 66.6113C51.3677 67.4442 50.3031 69.8602 51.1369 72.0038C51.5549 73.0806 52.3644 73.8791 53.3407 74.3093C54.317 74.7395 55.4544 74.799 56.5293 74.3801L79.5939 65.4255C80.6241 65.0255 81.4541 64.2322 81.8995 63.2216C82.3432 62.2148 82.3702 61.0632 81.9702 60.033ZM66.665 25.3415C64.846 23.9092 62.2309 24.2369 60.811 26.0431L29.6252 65.8077C28.2075 67.6195 28.5215 70.2399 30.3296 71.6606C30.6119 71.8829 30.9135 72.0614 31.2244 72.1984C32.929 72.9496 34.9841 72.4821 36.1825 70.9562L67.3683 31.1916C68.7907 29.3796 68.474 26.7603 66.665 25.3415Z" fill="#0066FF"/>
</g>
<defs>
<clipPath id="clip0_21_158">
<rect width="73" height="73" fill="white" transform="translate(29.8181 0.380493) rotate(23.7818)"/>
</clipPath>
</defs>
</svg>
