<svg width="106" height="106" viewBox="0 0 106 106" fill="none" xmlns="http://www.w3.org/2000/svg">
<g clip-path="url(#clip0_22_2)">
<path d="M103.88 28.2814L75.3906 92.9839C74.7226 94.5012 73.3977 95.625 71.7898 96.0359C70.8838 96.2669 69.9416 96.2546 69.0619 96.0189C68.381 95.8364 67.7449 95.5239 67.1714 95.0816L49.4642 81.4321L37.8713 91.6203C36.9464 92.5357 35.7371 92.8215 34.599 92.5166C32.7292 92.0156 31.6223 90.0983 32.1233 88.2286L36.3134 72.5907C36.6234 71.4339 37.3103 70.413 38.2652 69.6912L85.7604 33.732L26.4935 63.9091L11.6749 52.48C10.0502 51.2257 9.27216 49.17 9.72093 47.0074C10.1697 44.8448 11.6435 43.3891 13.6291 42.8668L97.5826 20.9077C99.5868 20.3802 101.707 21.0462 103.049 22.6175C104.392 24.1889 104.718 26.3903 103.88 28.2814Z" fill="#0066FF"/>
</g>
<defs>
<clipPath id="clip0_22_2">
<rect width="86.1822" height="86.1822" fill="white" transform="translate(22.3056) rotate(15)"/>
</clipPath>
</defs>
</svg>
