<svg width="294" height="297" viewBox="0 0 294 297" fill="none" xmlns="http://www.w3.org/2000/svg">
<g clip-path="url(#clip0_45_86)">
<path d="M65.9396 49.5994L63.6982 61.3364L74.8729 64.4785L73.4845 51.948L65.9396 49.5994Z" fill="#A0616A"/>
<path d="M0 292.555C0 292.924 0.297003 293.221 0.666853 293.221H293.333C293.703 293.221 294 292.924 294 292.555C294 292.187 293.703 291.89 293.333 291.89H0.666853C0.297003 291.89 0 292.187 0 292.555Z" fill="#3F3D56"/>
<path d="M199.507 133.192H84.2595C71.1905 133.192 60.5959 143.759 60.5959 156.794V268.258C60.5959 281.293 71.1904 291.861 84.2595 291.861H199.507C212.576 291.861 223.17 281.293 223.17 268.258V156.794C223.17 143.759 212.576 133.192 199.507 133.192V133.192Z" fill="white"/>
<path d="M199.507 292.419H84.2595C70.9025 292.419 60.0355 281.581 60.0355 268.258V156.794C60.0355 143.472 70.9025 132.633 84.2595 132.633H199.507C212.864 132.633 223.731 143.472 223.731 156.794V268.258C223.731 281.581 212.864 292.419 199.507 292.419H199.507ZM84.2595 133.751C71.5203 133.751 61.1562 144.088 61.1562 156.794V268.258C61.1562 280.964 71.5203 291.301 84.2595 291.301H199.507C212.246 291.301 222.61 280.964 222.61 268.258V156.794C222.61 144.088 212.246 133.751 199.507 133.751H84.2595V133.751Z" fill="#3F3D56"/>
<path d="M207.855 181.515H161.531C159.567 181.515 157.968 179.921 157.968 177.961C157.968 176.001 159.567 174.407 161.531 174.407H207.855C209.819 174.407 211.418 176.001 211.418 177.961C211.418 179.921 209.819 181.515 207.855 181.515H207.855Z" fill="#0066FF"/>
<path d="M164.397 209.465H119.369C118.234 209.465 117.31 208.543 117.31 207.411C117.31 206.279 118.234 205.358 119.369 205.358H164.397C165.533 205.358 166.456 206.279 166.456 207.411C166.456 208.543 165.533 209.465 164.397 209.465V209.465Z" fill="#0066FF"/>
<path d="M100.754 140.825H75.0468C74.9508 140.825 74.8729 140.903 74.8729 140.999V143.984C74.8729 144.079 74.9508 144.157 75.0468 144.157H100.754C100.85 144.157 100.928 144.079 100.928 143.984V140.999C100.928 140.903 100.85 140.825 100.754 140.825Z" fill="#0066FF"/>
<path d="M187.346 144.157C188.822 144.157 190.018 142.963 190.018 141.491C190.018 140.019 188.822 138.826 187.346 138.826C185.87 138.826 184.674 140.019 184.674 141.491C184.674 142.963 185.87 144.157 187.346 144.157Z" fill="#3F3D56"/>
<path d="M194.695 144.157C196.171 144.157 197.367 142.963 197.367 141.491C197.367 140.019 196.171 138.826 194.695 138.826C193.219 138.826 192.023 140.019 192.023 141.491C192.023 142.963 193.219 144.157 194.695 144.157Z" fill="#3F3D56"/>
<path d="M202.044 144.157C203.52 144.157 204.716 142.963 204.716 141.491C204.716 140.019 203.52 138.826 202.044 138.826C200.568 138.826 199.372 140.019 199.372 141.491C199.372 142.963 200.568 144.157 202.044 144.157Z" fill="#3F3D56"/>
<path d="M83.979 220.457C83.979 220.825 84.276 221.122 84.6459 221.122H199.12C199.49 221.122 199.787 220.825 199.787 220.457C199.787 220.088 199.49 219.792 199.12 219.792H84.6459C84.276 219.792 83.979 220.088 83.979 220.457Z" fill="#3F3D56"/>
<path d="M118.892 56.4031C121.329 54.3946 124.343 54.0208 125.624 55.5679C126.906 57.1151 125.969 59.9969 123.53 62.0058C122.567 62.8216 121.423 63.3956 120.192 63.6796L109.758 72.0597L105.92 67.0923L116.613 59.3584C117.125 58.2059 117.906 57.1926 118.892 56.4031H118.892Z" fill="#A0616A"/>
<path d="M58.5863 75.3107C58.581 74.9401 58.5845 71.7074 60.984 69.6641C63.7403 67.317 67.6296 68.267 68.9938 68.6002C72.145 69.3699 72.4034 70.7182 75.3627 72.1036C80.8993 74.6955 73.9622 73.3688 77.2566 72.5377C78.397 72.2501 94.8024 71.1152 98.8861 68.6083C106.828 63.7327 112.24 60.7761 112.24 60.7761L115.777 67.8331C115.777 67.8331 110.662 74.9276 103.462 80.1833C96.0774 85.5744 92.3849 88.27 86.7733 89.3115C86.29 89.4012 74.405 91.4252 64.8326 84.2921C62.6492 82.6651 58.6486 79.6839 58.5863 75.3107V75.3107V75.3107Z" fill="#0066FF"/>
<path d="M69.5601 57.3634C76.3663 57.3634 81.8838 51.8601 81.8838 45.0716C81.8838 38.283 76.3663 32.7798 69.5601 32.7798C62.754 32.7798 57.2365 38.283 57.2365 45.0716C57.2365 51.8601 62.754 57.3634 69.5601 57.3634Z" fill="#A0616A"/>
<path d="M166.074 127.652L153.383 114.695L146.831 121.511L156.287 133.935L165.666 135.005L166.074 127.652Z" fill="#A0616A"/>
<path d="M93.6044 103.354C94.3467 103.415 96.7057 103.887 98.9605 102.649C100.499 101.805 101.289 100.549 101.555 100.15C104.862 95.1962 117.554 87.4714 128.946 86.996C131.525 86.8884 133.223 87.1865 134.766 87.9889C136.955 89.1267 137.829 90.7565 140.606 94.5744C142.125 96.6629 143.805 98.6304 145.343 100.705C154.343 112.854 157.755 113.808 157.406 117.702C157.019 122.024 152.347 126.123 149.241 125.65C147.97 125.456 147.477 124.574 145.778 122.788C140.796 117.553 138.734 118.52 135.187 114.51C131.046 109.828 131.588 105.946 129.427 105.796C127.424 105.657 126.572 108.969 122.295 113.368C120.337 115.381 118.944 116.305 114.697 119.243C98.1608 130.685 97.8969 131.489 94.5597 132.402C93.0996 132.801 82.7365 135.635 79.0449 131.125C73.2679 124.068 86.9155 102.799 93.6044 103.354L93.6044 103.354Z" fill="#2F2E41"/>
<path d="M162.194 130.581C163.127 130.163 164.219 129.674 164.57 128.55C164.808 127.789 164.671 126.851 164.18 126.203C163.613 125.455 162.774 125.357 162.808 125.225C162.86 125.023 164.843 125.102 167.02 125.869C167.431 126.014 169.293 126.693 171.66 128.536C173.557 130.013 173.302 130.31 174.492 131.161C178.143 133.776 181.568 131.715 183.544 134.167C184.306 135.113 184.631 136.457 184.31 137.543C183.666 139.725 180.532 140.475 178.819 140.863C174.694 141.796 171.572 141.034 168.312 140.487C157.224 138.623 150.995 140.32 150.161 137.758C150.003 137.273 150.259 137.315 151.114 133.756C151.958 130.244 151.93 129.28 152.649 128.998C153.731 128.575 154.457 130.501 157.182 131.16C159.597 131.744 161.589 130.852 162.194 130.581L162.194 130.581Z" fill="#2F2E41"/>
<path d="M143.511 170.043L140.304 152.212L131.045 154.183L131.875 169.759L139.033 175.898L143.511 170.043Z" fill="#A0616A"/>
<path d="M97.2254 109.347C97.805 109.814 99.4915 111.525 102.054 111.764C103.803 111.927 105.162 111.33 105.608 111.149C111.133 108.902 125.984 109.619 135.678 115.606C137.873 116.962 139.11 118.159 139.935 119.688C141.105 121.855 140.911 123.693 141.059 128.407C141.14 130.986 141.423 133.556 141.527 136.134C142.135 151.227 144.421 153.927 141.94 156.954C139.187 160.313 133.013 161.089 130.71 158.958C129.766 158.085 129.855 157.079 129.455 154.65C128.28 147.527 126.03 147.173 125.352 141.868C124.561 135.675 127.196 132.766 125.492 131.432C123.913 130.195 121.344 132.458 115.327 133.703C112.574 134.272 110.901 134.255 105.733 134.308C85.608 134.515 84.9369 135.032 81.6618 133.918C80.2288 133.431 70.0585 129.971 69.5427 124.172C68.7357 115.097 92.0027 105.142 97.2253 109.347L97.2254 109.347V109.347Z" fill="#2F2E41"/>
<path d="M138.651 170.292C139.659 170.469 140.837 170.676 141.761 169.942C142.386 169.446 142.8 168.594 142.759 167.782C142.711 166.846 142.072 166.295 142.175 166.204C142.331 166.067 143.928 167.243 145.297 169.097C145.556 169.447 146.714 171.051 147.635 173.903C148.373 176.187 147.995 176.289 148.5 177.66C150.049 181.869 154.043 182.082 154.298 185.217C154.396 186.428 153.909 187.721 153.032 188.44C151.27 189.885 148.254 188.751 146.619 188.112C142.68 186.574 140.526 184.195 138.137 181.915C130.011 174.163 123.901 172.079 124.654 169.492C124.796 169.002 124.985 169.18 127.696 166.714C130.371 164.281 130.891 163.467 131.644 163.637C132.777 163.893 132.294 165.893 134.178 167.964C135.847 169.8 137.998 170.178 138.651 170.292H138.651Z" fill="#2F2E41"/>
<path d="M71.2403 47.4214C71.7201 45.7096 71.1175 45.0858 71.7317 44.3174C71.7317 44.3174 71.9788 44.0082 74.1885 43.1739C73.5365 39.4011 74.0247 38.7631 74.0247 38.7631C74.5873 38.0278 75.7142 37.8501 76.4815 37.9463C78.1041 38.1497 78.3914 39.6127 79.4296 39.5799C80.8639 39.5346 82.5842 36.6709 82.0502 34.1889C81.6147 32.1643 79.7366 30.6607 79.2659 30.9216C78.7991 31.1803 77.1187 30.0396 76.4815 30.2682C76.0463 30.4243 73.9978 30.2166 73.5333 30.4315C73.0261 30.6663 71.5734 32.1277 71.4345 31.9436C70.4694 30.664 70.4899 30.2172 69.93 29.9414C68.9378 29.4528 67.8591 30.356 65.9991 31.2484C62.1722 33.0844 61.0516 31.9892 59.2839 33.5354C58.3909 34.3166 57.9121 35.8094 56.9908 38.7631C55.7025 42.8938 55.0584 44.9592 55.6806 46.9313C56.3151 48.9424 57.2495 48.5047 58.6287 51.3421C60.164 54.5006 59.6348 56.3365 61.0855 57.0598C62.2067 57.6189 64.0085 57.2631 64.6888 56.243C65.8536 54.4965 62.8431 52.1341 63.8699 49.3817C64.5002 47.6922 66.4446 46.4112 67.637 46.7679C68.9852 47.1712 69.0845 49.5824 69.93 49.5451C70.654 49.5131 71.1567 47.7196 71.2403 47.4214L71.2403 47.4213L71.2403 47.4214Z" fill="#2F2E41"/>
<path d="M61.9045 59.1835C64.4263 56.3632 74.6984 59.2823 75.6625 63.7576C76.0591 65.5984 74.5951 66.3757 75.0074 68.4952C75.6104 71.5953 79.0246 71.3839 81.5589 74.5396C85.1567 79.0198 81.4502 83.3993 85.4897 90.876C86.3529 92.4737 87.0805 93.8202 88.6017 95.1235C92.0924 98.114 95.3411 97.0884 97.1186 99.861C98.4478 101.934 97.9017 104.49 97.7738 105.089C97.2492 107.543 95.8274 108.142 94.8256 110.153C93.1588 113.499 95.046 115.956 95.1532 119.955C95.2872 124.957 92.6219 131.892 87.2914 134.167C81.3029 136.724 74.0802 132.49 70.5851 128.286C68.4996 125.778 67.8942 123.464 66.9818 120.608C62.9042 107.844 60.6005 108.999 57.4822 98.8808C53.9174 87.3142 53.2166 73.7634 57.4822 69.4754C58.0476 68.907 59.6035 67.5933 60.5941 65.2279C61.9271 62.0449 60.7756 60.4459 61.9044 59.1835H61.9045V59.1835Z" fill="#0066FF"/>
<path d="M99.1674 124.836C101.123 127.314 101.426 130.329 99.8445 131.57C98.2633 132.81 95.3971 131.807 93.4415 129.329C92.6467 128.349 92.0986 127.194 91.8432 125.96L83.6918 115.357L87.9038 112.152L96.2594 122.494C97.4024 123.032 98.3995 123.835 99.1674 124.836H99.1674H99.1674Z" fill="#A0616A"/>
<path d="M69.3141 69.9319C69.6768 69.8512 72.8504 69.1949 75.3455 71.1209C78.2116 73.3334 78.0727 77.3249 78.024 78.7249C77.9116 81.9589 76.6409 82.4863 75.8851 85.6586C74.4709 91.5935 77.1641 97.109 78.652 100.156C79.1671 101.211 80.8217 104.438 84.1155 107.914C90.5215 114.674 96.2373 118.232 96.2373 118.232L90.0969 123.676C90.0969 123.676 80.316 120.702 73.6885 114.745C66.8902 108.634 56.4357 87.0124 54.2684 81.7456C54.0818 81.292 56.7255 88.666 61.7735 77.8637C62.9249 75.3997 65.0345 70.8852 69.3141 69.9319H69.3141Z" fill="#0066FF"/>
<path d="M153.506 235.682C149.603 236.279 146.748 238.771 147.129 241.249C147.51 243.726 150.983 245.25 154.887 244.653C156.45 244.435 157.938 243.848 159.226 242.939L175.731 240.203L174.629 233.696L158.162 236.02C156.659 235.538 155.063 235.422 153.506 235.682H153.506Z" fill="#FFB6B6"/>
<path d="M224.628 215.399L218.229 228.944L186.056 239.746L159.359 241.167L158.691 234.771L187.624 228.737L217.313 214.744L224.628 215.399Z" fill="#0066FF"/>
<path d="M165.29 266.83L159.545 281.325L152.109 276.269L156.503 261.099L165.29 266.83Z" fill="#FFB6B6"/>
<path d="M141.294 261.436L126.085 275.932L132.168 282.337L147.715 270.201L141.294 261.436Z" fill="#FFB6B6"/>
<path d="M227.479 214.241L227.31 213.061L223.423 205.476L210.58 208.847L212.946 219.298L227.479 214.241Z" fill="#FFB6B6"/>
<path d="M222.071 264.807L222.466 269.87C222.466 269.87 224.099 291.101 210.918 292.787C197.736 294.472 191.991 296.158 184.217 283.011L172.05 261.436L164.943 269.87L155.489 262.447C155.489 262.447 162.248 236.153 167.656 235.142C168.332 235.015 169.008 234.952 169.674 234.938C174.15 234.845 178.371 237.029 181.049 240.608L196.385 261.099L201.961 258.571L222.071 264.807V264.807Z" fill="#2F2E41"/>
<path d="M149.067 280.651L152.109 274.92L160.897 280.988C160.897 280.988 162.924 288.405 159.883 289.416C156.841 290.427 148.391 289.079 148.391 289.079C148.391 289.079 132.844 292.45 132.506 289.416C132.168 286.382 139.604 285.708 139.604 285.708L149.067 280.651L149.067 280.651H149.067Z" fill="#2F2E41"/>
<path d="M182.189 276.606L158.7 261.843L146.701 272.561L138.59 263.122C138.59 263.122 153.461 241.21 157.855 240.198C162.248 239.187 169.346 238.513 169.346 238.513L190.977 258.402L182.189 276.606V276.606Z" fill="#2F2E41"/>
<path d="M125.747 274.583L133.52 283.011L132.495 283.886C132.495 283.886 130.478 292.646 125.747 289.683C121.015 286.719 120.677 286.045 120.677 286.045C120.677 286.045 107.158 289.079 105.806 283.685C104.454 278.291 108.172 279.303 108.172 279.303L111.547 281.325L125.747 274.583L125.747 274.583Z" fill="#2F2E41"/>
<path d="M214.635 212.556C220.609 212.556 225.451 207.726 225.451 201.768C225.451 195.81 220.609 190.981 214.635 190.981C208.662 190.981 203.82 195.81 203.82 201.768C203.82 207.726 208.662 212.556 214.635 212.556Z" fill="#FFB6B6"/>
<path d="M212.101 217.106L227.648 212.387C227.648 212.387 233.731 226.545 232.717 232.95C231.703 239.356 222.466 269.87 222.466 269.87L201.961 258.571C201.961 258.571 201.623 251.828 200.609 248.795C199.595 245.761 196.385 236.49 203.482 228.737C210.58 220.983 212.101 217.106 212.101 217.106L212.101 217.106Z" fill="#0066FF"/>
<path d="M177.883 287.893C175.352 290.916 174.865 294.669 176.795 296.275C178.724 297.881 182.339 296.731 184.869 293.706C185.897 292.512 186.623 291.089 186.986 289.558L197.544 276.612L192.401 272.461L181.597 285.073C180.151 285.703 178.877 286.67 177.882 287.893L177.883 287.893Z" fill="#FFB6B6"/>
<path d="M224.026 223.907L227.701 238.426L209.715 267.142L191.354 285.547L185.403 280.622L203.92 257.642L217.956 228.033L224.026 223.907Z" fill="#0066FF"/>
<path d="M204.665 199.914C207.439 199.907 207.596 199.926 208.045 199.914C211.485 199.823 212.385 198.473 214.128 198.566C217.241 198.73 213.133 214.294 211.425 221.489C209.749 228.545 215.412 234.869 215.818 235.31C221.566 241.545 231.661 242.685 233.393 240.03C234.795 237.881 229.826 234.613 231.027 229.917C232.202 225.325 237.623 225.814 239.139 221.489C240.726 216.959 235.392 214.675 232.041 203.622C230.117 197.275 230.457 196.092 228.662 192.161C223.862 181.652 200.334 186.126 202.975 195.869C203.486 197.753 202.126 199.92 204.665 199.914V199.914Z" fill="#2F2E41"/>
<path d="M239.201 71.8532H125.533C122.319 71.8532 119.704 69.2446 119.704 66.0387V5.81456C119.704 2.60859 122.319 0 125.533 0H239.201C242.416 0 245.031 2.60859 245.031 5.81456V66.0387C245.031 69.2446 242.416 71.8532 239.201 71.8532Z" fill="white"/>
<path d="M239.201 71.8532H125.533C122.319 71.8532 119.704 69.2446 119.704 66.0387V5.81456C119.704 2.60859 122.319 0 125.533 0H239.201C242.416 0 245.031 2.60859 245.031 5.81456V66.0387C245.031 69.2446 242.416 71.8532 239.201 71.8532ZM125.533 0.97099C122.856 0.97099 120.677 3.14386 120.677 5.81456V66.0387C120.677 68.7094 122.856 70.8822 125.533 70.8822H239.201C241.879 70.8822 244.057 68.7094 244.057 66.0387V5.81456C244.057 3.14386 241.879 0.97099 239.201 0.97099H125.533Z" fill="#3F3D56"/>
<path d="M230.428 7.28235C231.235 7.28235 231.888 6.63026 231.888 5.82587C231.888 5.02147 231.235 4.36938 230.428 4.36938C229.622 4.36938 228.968 5.02147 228.968 5.82587C228.968 6.63026 229.622 7.28235 230.428 7.28235Z" fill="#3F3D56"/>
<path d="M234.322 7.28235C235.129 7.28235 235.782 6.63026 235.782 5.82587C235.782 5.02147 235.129 4.36938 234.322 4.36938C233.516 4.36938 232.862 5.02147 232.862 5.82587C232.862 6.63026 233.516 7.28235 234.322 7.28235Z" fill="#3F3D56"/>
<path d="M238.216 7.28235C239.023 7.28235 239.676 6.63026 239.676 5.82587C239.676 5.02147 239.023 4.36938 238.216 4.36938C237.41 4.36938 236.756 5.02147 236.756 5.82587C236.756 6.63026 237.41 7.28235 238.216 7.28235Z" fill="#3F3D56"/>
<path d="M127.979 29.3723C127.576 29.3723 127.248 29.699 127.248 30.1006C127.248 30.2964 127.324 30.4775 127.462 30.6112C127.601 30.7529 127.782 30.8288 127.979 30.8288H237.243C237.645 30.8288 237.973 30.5021 237.973 30.1006C237.973 29.9047 237.897 29.7236 237.759 29.5899C237.621 29.4482 237.439 29.3723 237.243 29.3723H127.979Z" fill="#0066FF"/>
<path d="M223.614 29.1296V31.0716H127.979C127.711 31.0716 127.467 30.9648 127.292 30.7852C127.112 30.6104 127.005 30.3676 127.005 30.1006C127.005 29.5666 127.443 29.1296 127.979 29.1296H223.614Z" fill="#0066FF"/>
<path d="M236.026 25.4885H226.291C225.217 25.4885 224.344 24.6175 224.344 23.5465C224.344 22.4754 225.217 21.6045 226.291 21.6045H236.026C237.099 21.6045 237.973 22.4754 237.973 23.5465C237.973 24.6175 237.099 25.4885 236.026 25.4885Z" fill="#0066FF"/>
<path d="M172.261 15.2931H128.709C127.635 15.2931 126.762 14.4222 126.762 13.3512C126.762 12.2801 127.635 11.4092 128.709 11.4092H172.261C173.335 11.4092 174.208 12.2801 174.208 13.3512C174.208 14.4222 173.335 15.2931 172.261 15.2931Z" fill="#0066FF"/>
<path d="M127.979 51.2197C127.576 51.2197 127.248 51.5464 127.248 51.948C127.248 52.1438 127.324 52.3249 127.462 52.4586C127.601 52.6003 127.782 52.6762 127.979 52.6762H237.243C237.645 52.6762 237.973 52.3495 237.973 51.948C237.973 51.7522 237.897 51.5711 237.759 51.4373C237.621 51.2956 237.439 51.2197 237.243 51.2197H127.979Z" fill="#0066FF"/>
<path d="M186.134 50.9771V52.919H127.979C127.711 52.919 127.467 52.8122 127.292 52.6326C127.112 52.4578 127.005 52.2151 127.005 51.948C127.005 51.414 127.443 50.9771 127.979 50.9771H186.134Z" fill="#0066FF"/>
<path d="M236.026 47.3359H226.291C225.217 47.3359 224.344 46.4649 224.344 45.3939C224.344 44.3229 225.217 43.4519 226.291 43.4519H236.026C237.099 43.4519 237.973 44.3229 237.973 45.3939C237.973 46.4649 237.099 47.3359 236.026 47.3359Z" fill="#0066FF"/>
</g>
<defs>
<clipPath id="clip0_45_86">
<rect width="294" height="297" fill="white"/>
</clipPath>
</defs>
</svg>
